HIERARCHY
ROOT hip
{
	OFFSET 0.000000 0.000000 0.000000
	CHANNELS 6 Xposition Yposition Zposition Xrotation Zrotation Yrotation 
	JOINT abdomen
	{
		OFFSET 0.000000 3.422050 0.000000
		CHANNELS 3 Xrotation Zrotation Yrotation 
		JOINT chest
		{
			OFFSET 0.000000 8.486693 -0.684411
			CHANNELS 3 Xrotation Zrotation Yrotation 
			JOINT neck
			{
				OFFSET 0.000000 10.266162 -0.273764
				CHANNELS 3 Xrotation Zrotation Yrotation 
				JOINT head
				{
					OFFSET 0.000000 3.148285 0.000000
					CHANNELS 3 Xrotation Zrotation Yrotation 
					End Site
					{
						OFFSET 0.000000 3.148289 0.000000
					}
				}
			}
			JOINT lCollar
			{
				OFFSET 3.422053 6.707223 -0.821293
				CHANNELS 3 Yrotation Zrotation Xrotation 
				JOINT lShldr
				{
					OFFSET 3.285171 0.000000 0.000000
					CHANNELS 3 Zrotation Yrotation Xrotation 
					JOINT lForeArm
					{
						OFFSET 10.129278 0.000000 0.000000
						CHANNELS 3 Yrotation Zrotation Xrotation 
						JOINT lHand
						{
							OFFSET 8.486692 0.000000 0.000000
							CHANNELS 3 Zrotation Yrotation Xrotation 
							End Site
							{
								OFFSET 4.106464 0.000000 0.000000
							}
						}
					}
				}
			}
			JOINT rCollar
			{
				OFFSET -3.558935 6.707223 -0.821293
				CHANNELS 3 Yrotation Zrotation Xrotation 
				JOINT rShldr
				{
					OFFSET -3.148289 0.000000 0.000000
					CHANNELS 3 Zrotation Yrotation Xrotation 
					JOINT rForeArm
					{
						OFFSET -10.266159 0.000000 0.000000
						CHANNELS 3 Yrotation Zrotation Xrotation 
						JOINT rHand
						{
							OFFSET -8.349810 0.000000 0.000000
							CHANNELS 3 Zrotation Yrotation Xrotation 
							End Site
							{
								OFFSET -4.106464 0.000000 0.000000
							}
						}
					}
				}
			}
		}
	}
	JOINT lThigh
	{
		OFFSET 5.338403 -1.642589 1.368821
		CHANNELS 3 Xrotation Zrotation Yrotation 
		JOINT lShin
		{
			OFFSET -2.053232 -20.121670 0.000000
			CHANNELS 3 Xrotation Zrotation Yrotation 
			JOINT lFoot
			{
				OFFSET 0.000000 -19.300380 -1.231939
				CHANNELS 3 Xrotation Yrotation Zrotation 
				End Site
				{
					OFFSET 0.000000 -2.463878 4.653993
				}
			}
		}
	}
	JOINT rThigh
	{
		OFFSET -5.338403 -1.642589 1.368821
		CHANNELS 3 Xrotation Zrotation Yrotation 
		JOINT rShin
		{
			OFFSET 2.053232 -20.121670 0.000000
			CHANNELS 3 Xrotation Zrotation Yrotation 
			JOINT rFoot
			{
				OFFSET 0.000000 -19.300380 -1.231939
				CHANNELS 3 Xrotation Yrotation Zrotation 
				End Site
				{
					OFFSET 0.000000 -2.463878 4.653993
				}
			}
		}
	}
}
MOTION
Frames: 6
Frame Time: 0.050000
0.000000 43.528500 0.000000 0.000000 0.000000 0.000000 0.000000 0.000000 0.000000 0.000000 0.000000 0.000000 0.000000 0.000000 0.000000 0.000000 0.000000 0.000000 0.000000 0.000000 0.000000 0.000000 0.000000 0.000000 0.000000 0.000000 0.000000 0.000000 0.000000 0.000000 0.000000 0.000000 0.000000 0.000000 0.000000 0.000000 0.000000 0.000000 0.000000 0.000000 0.000000 0.000000 0.000000 0.000000 0.000000 0.000000 0.000000 0.000000 0.000000 0.000000 0.000000 0.000000 0.000000 0.000000 0.000000 0.000000 0.000000 0.000000 0.000000 0.000000 
-18.001394 24.998436 4.995216 0.000000 0.000000 180.000000 -7.493383 -2.892283 -2.277023 10.513629 3.271141 -0.069603 -2.001480 8.999918 -0.001410 14.998176 0.000000 0.000000 -0.040325 -20.962534 -13.057602 -55.520416 -68.341087 8.435410 -30.906694 -56.568050 15.574961 -32.381393 -8.672329 4.568983 -12.174144 -8.578710 -15.704463 85.802094 81.935585 34.836720 67.530182 41.452160 -50.220085 44.953365 23.077213 -10.307232 -85.438385 27.017529 7.783628 47.298607 -0.989541 -3.875649 42.304592 3.013374 0.988835 -85.439171 -27.022676 -7.783729 47.298431 0.987736 3.871046 42.304554 -3.017891 -0.990844 
-18.001394 24.998436 4.995216 0.000000 0.000000 180.000000 -7.493384 -2.892284 -2.277024 10.513630 3.271141 -0.069603 0.673356 8.999807 -0.001328 13.858269 0.000000 0.000000 -0.040324 -20.962534 -13.057602 -55.520432 -68.341110 8.435414 -30.258442 -56.715397 16.117422 -32.381393 -8.672329 4.568983 -12.174145 -8.578712 -15.704465 85.802094 81.935585 34.836720 67.656593 41.199524 -50.305500 44.953369 23.077215 -10.307233 -85.502083 26.761990 7.273584 47.298615 -0.989540 -3.875649 42.376755 3.245598 0.465412 -85.504631 -26.744701 -7.232707 47.298435 0.987736 3.871046 42.383678 -3.269513 -0.422232 
-18.001394 24.998436 4.995216 0.000000 0.000000 180.000000 -7.493383 -2.892283 -2.277023 10.513629 3.271141 -0.069603 3.366220 8.999695 -0.001251 12.716996 0.000000 0.000000 -0.040325 -20.962534 -13.057602 -55.520405 -68.341087 8.435404 -29.605042 -56.859348 16.665077 -32.381390 -8.672329 4.568983 -12.174144 -8.578710 -15.704463 85.802094 81.935585 34.836720 67.781998 40.946720 -50.389839 44.953365 23.077211 -10.307230 -85.563087 26.505878 6.764863 47.298607 -0.989541 -3.875649 42.451077 3.477224 -0.058585 -85.566940 -26.466087 -6.683203 47.298428 0.987736 3.871046 42.465347 -3.520428 0.147079 
-18.001394 24.998436 4.995216 0.000000 0.000000 180.000000 -7.493383 -2.892283 -2.277023 10.513629 3.271141 -0.069603 6.074295 8.999577 -0.001178 11.574590 0.000000 0.000000 -0.040325 -20.962534 -13.057602 -55.520416 -68.341087 8.435410 -28.946590 -56.999886 17.217867 -32.381393 -8.672329 4.568983 -12.174144 -8.578710 -15.704463 85.802094 81.935585 34.836720 67.906456 40.693775 -50.473141 44.953365 23.077213 -10.307232 -85.621422 26.249239 6.257455 47.298607 -0.989541 -3.875649 42.527546 3.708218 -0.583148 -85.626144 -26.186876 -6.135211 47.298428 0.987736 3.871046 42.549553 -3.770594 0.717074 
-18.001394 24.998436 4.995216 0.000000 0.000000 180.000000 -7.493383 -2.892283 -2.277023 10.513629 3.271141 -0.069603 8.794662 8.999454 -0.001112 10.431273 0.000000 0.000000 -0.040325 -20.962534 -13.057602 -55.520424 -68.341087 8.435414 -28.283134 -57.136932 17.775717 -32.381393 -8.672329 4.568983 -12.174145 -8.578711 -15.704465 85.802094 81.935585 34.836720 68.029984 40.440681 -50.555416 44.953365 23.077213 -10.307234 -85.677124 25.992098 5.751362 47.298607 -0.989541 -3.875649 42.606182 3.938550 -1.108266 -85.682243 -25.907110 -5.588733 47.298431 0.987736 3.871046 42.636303 -4.019969 1.287742 
